HIERARCHY
ROOT Hips
{
  OFFSET 5.84602e-005 68.8428 3.50346
  CHANNELS 6 Xposition Yposition Zposition Zrotation Xrotation Yrotation
  JOINT Spine
  {
    OFFSET 0 8.597 -4.6522
    CHANNELS 3 Zrotation Xrotation Yrotation
    JOINT Spine1
    {
      OFFSET 0 7.8454 0.4098
      CHANNELS 3 Zrotation Xrotation Yrotation
      JOINT Spine2
      {
        OFFSET 0 9.7078 -2.1609
        CHANNELS 3 Zrotation Xrotation Yrotation
        JOINT Neck
        {
          OFFSET 0 21.8761 -0.4549
          CHANNELS 3 Zrotation Xrotation Yrotation
          JOINT Head
          {
            OFFSET 0 12.3537 3.3602
            CHANNELS 3 Zrotation Xrotation Yrotation
            End Site
            {
              OFFSET 0.0001 18.9506 0.5657
            }
          }
        }
        JOINT LeftShoulder
        {
          OFFSET 2.2086 21.1115 7.2329
          CHANNELS 3 Zrotation Xrotation Yrotation
          JOINT LeftArm
          {
            OFFSET 13.1193 3.0282 -4.8998
            CHANNELS 3 Zrotation Xrotation Yrotation
            JOINT LeftForeArm
            {
              OFFSET 27.4081 -0.0973053 -0.2375
              CHANNELS 3 Zrotation Xrotation Yrotation
              JOINT LeftHand
              {
                OFFSET 22.8641 0.0662994 -0.1369
                CHANNELS 3 Zrotation Xrotation Yrotation
                JOINT LeftHandIndex1
                {
                  OFFSET 8.8614 0.775009 2.4612
                  CHANNELS 3 Zrotation Xrotation Yrotation
                  JOINT LeftHandIndex2
                  {
                    OFFSET 3.3146 -0.808304 0.5841
                    CHANNELS 3 Zrotation Xrotation Yrotation
                    JOINT LeftHandIndex3
                    {
                      OFFSET 2.2628 -0.552002 0.3989
                      CHANNELS 3 Zrotation Xrotation Yrotation
                      End Site
                      {
                        OFFSET 1.6102 -0.4807 0.2612
                      }
                    }
                  }
                }
                JOINT LeftHandMiddle1
                {
                  OFFSET 8.9937 0.895004 0.2143
                  CHANNELS 3 Zrotation Xrotation Yrotation
                  JOINT LeftHandMiddle2
                  {
                    OFFSET 4.0984 0.0113983 -0.0242
                    CHANNELS 3 Zrotation Xrotation Yrotation
                    JOINT LeftHandMiddle3
                    {
                      OFFSET 2.2716 0.00689697 -0.0138001
                      CHANNELS 3 Zrotation Xrotation Yrotation
                      End Site
                      {
                        OFFSET 2.0404 -0.1441 0.0027
                      }
                    }
                  }
                }
                JOINT LeftHandRing1
                {
                  OFFSET 8.5234 0.597198 -2.0164
                  CHANNELS 3 Zrotation Xrotation Yrotation
                  JOINT LeftHandRing2
                  {
                    OFFSET 3.7188 -0.188293 -0.2328
                    CHANNELS 3 Zrotation Xrotation Yrotation
                    JOINT LeftHandRing3
                    {
                      OFFSET 2.1191 -0.106598 -0.1332
                      CHANNELS 3 Zrotation Xrotation Yrotation
                      End Site
                      {
                        OFFSET 1.8737 -0.2304 -0.0886
                      }
                    }
                  }
                }
                JOINT LeftHandPinky1
                {
                  OFFSET 7.9094 -0.601089 -3.4825
                  CHANNELS 3 Zrotation Xrotation Yrotation
                  JOINT LeftHandPinky2
                  {
                    OFFSET 2.2874 -0.477005 -0.6314
                    CHANNELS 3 Zrotation Xrotation Yrotation
                    JOINT LeftHandPinky3
                    {
                      OFFSET 1.6774 -0.349396 -0.4633
                      CHANNELS 3 Zrotation Xrotation Yrotation
                      End Site
                      {
                        OFFSET 1.4888 -0.4091 -0.3416
                      }
                    }
                  }
                }
                JOINT LeftHandThumb1
                {
                  OFFSET 1.833 -1.3875 1.3896
                  CHANNELS 3 Zrotation Xrotation Yrotation
                  JOINT LeftHandThumb2
                  {
                    OFFSET 3.4129 -1.121 2.5732
                    CHANNELS 3 Zrotation Xrotation Yrotation
                    JOINT LeftHandThumb3
                    {
                      OFFSET 2.2474 -0.804199 1.6192
                      CHANNELS 3 Zrotation Xrotation Yrotation
                      End Site
                      {
                        OFFSET 1.6527 -0.5689 1.1317
                      }
                    }
                  }
                }
              }
            }
          }
        }
        JOINT RightShoulder
        {
          OFFSET -2.2086 21.1115 7.2329
          CHANNELS 3 Zrotation Xrotation Yrotation
          JOINT RightArm
          {
            OFFSET -13.1216 3.0287 -4.9007
            CHANNELS 3 Zrotation Xrotation Yrotation
            JOINT RightForeArm
            {
              OFFSET -27.4081 -0.0973053 -0.2375
              CHANNELS 3 Zrotation Xrotation Yrotation
              JOINT RightHand
              {
                OFFSET -22.8641 0.0664063 -0.1369
                CHANNELS 3 Zrotation Xrotation Yrotation
                JOINT RightHandIndex1
                {
                  OFFSET -8.8614 0.774994 2.4612
                  CHANNELS 3 Zrotation Xrotation Yrotation
                  JOINT RightHandIndex2
                  {
                    OFFSET -3.3146 -0.808304 0.5841
                    CHANNELS 3 Zrotation Xrotation Yrotation
                    JOINT RightHandIndex3
                    {
                      OFFSET -2.2628 -0.552002 0.3989
                      CHANNELS 3 Zrotation Xrotation Yrotation
                      End Site
                      {
                        OFFSET -1.6102 -0.4807 0.2612
                      }
                    }
                  }
                }
                JOINT RightHandMiddle1
                {
                  OFFSET -8.9937 0.894989 0.2143
                  CHANNELS 3 Zrotation Xrotation Yrotation
                  JOINT RightHandMiddle2
                  {
                    OFFSET -4.0984 0.0113983 -0.0242
                    CHANNELS 3 Zrotation Xrotation Yrotation
                    JOINT RightHandMiddle3
                    {
                      OFFSET -2.2716 0.00691223 -0.0138001
                      CHANNELS 3 Zrotation Xrotation Yrotation
                      End Site
                      {
                        OFFSET -2.0404 -0.1441 0.0027
                      }
                    }
                  }
                }
                JOINT RightHandRing1
                {
                  OFFSET -8.5234 0.597198 -2.0164
                  CHANNELS 3 Zrotation Xrotation Yrotation
                  JOINT RightHandRing2
                  {
                    OFFSET -3.7188 -0.188309 -0.2328
                    CHANNELS 3 Zrotation Xrotation Yrotation
                    JOINT RightHandRing3
                    {
                      OFFSET -2.1191 -0.106598 -0.1332
                      CHANNELS 3 Zrotation Xrotation Yrotation
                      End Site
                      {
                        OFFSET -1.8737 -0.2304 -0.0886
                      }
                    }
                  }
                }
                JOINT RightHandPinky1
                {
                  OFFSET -7.9094 -0.601105 -3.4825
                  CHANNELS 3 Zrotation Xrotation Yrotation
                  JOINT RightHandPinky2
                  {
                    OFFSET -2.2874 -0.477005 -0.6314
                    CHANNELS 3 Zrotation Xrotation Yrotation
                    JOINT RightHandPinky3
                    {
                      OFFSET -1.6774 -0.349396 -0.4633
                      CHANNELS 3 Zrotation Xrotation Yrotation
                      End Site
                      {
                        OFFSET -1.4888 -0.4091 -0.3416
                      }
                    }
                  }
                }
                JOINT RightHandThumb1
                {
                  OFFSET -1.833 -1.38751 1.3896
                  CHANNELS 3 Zrotation Xrotation Yrotation
                  JOINT RightHandThumb2
                  {
                    OFFSET -3.41299 -1.12099 2.5732
                    CHANNELS 3 Zrotation Xrotation Yrotation
                    JOINT RightHandThumb3
                    {
                      OFFSET -2.24741 -0.804108 1.6192
                      CHANNELS 3 Zrotation Xrotation Yrotation
                      End Site
                      {
                        OFFSET -1.6527 -0.5689 1.1317
                      }
                    }
                  }
                }
              }
            }
          }
        }
      }
    }
  }
  JOINT RightUpLeg
  {
    OFFSET -9.1966 3.8861 -0.7581
    CHANNELS 3 Zrotation Xrotation Yrotation
    JOINT RightLeg
    {
      OFFSET -0.7359 -41.0265 0
      CHANNELS 3 Zrotation Xrotation Yrotation
      JOINT RightFoot
      {
        OFFSET 0 -40.2855 0
        CHANNELS 3 Zrotation Xrotation Yrotation
        JOINT RightToeBase
        {
          OFFSET 0 -5.6122 11.7359
          CHANNELS 3 Zrotation Xrotation Yrotation
          End Site
          {
            OFFSET 0 0 7.8731
          }
        }
      }
    }
  }
  JOINT LeftUpLeg
  {
    OFFSET 9.1965 3.8864 -0.7581
    CHANNELS 3 Zrotation Xrotation Yrotation
    JOINT LeftLeg
    {
      OFFSET 0.7359 -41.0268 0
      CHANNELS 3 Zrotation Xrotation Yrotation
      JOINT LeftFoot
      {
        OFFSET 0 -40.2855 0
        CHANNELS 3 Zrotation Xrotation Yrotation
        JOINT LeftToeBase
        {
          OFFSET 0 -5.6122 11.7359
          CHANNELS 3 Zrotation Xrotation Yrotation
          End Site
          {
            OFFSET 0 0 7.8731
          }
        }
      }
    }
  }
}
MOTION
Frames:	4
Frame Time:	0.0333333
5.84602e-005 68.8428 3.50346 0 0 -0 0 0 -0 0 0 -0 0 0 -0 0 0 -0 0 0 -0 0 0 -0 0 0 -0 0 0 -0 0 0 -0 0 0 -0 0 0 -0 0 0 -0 0 0 -0 -0.0146107 -8.87603e-005 -2.63497e-007 2.99804e-018 -2.42657e-020 -1.42182e-022 0 0 -0 -0.0187562 -0.001176 5.858e-005 5.06224e-018 3.88251e-019 1.21329e-020 0 0 -0 -0.012269 -0.00324817 0.000675346 -1.74678e-018 3.88251e-019 -0 0 0 -0 0 0 -0 0 0 -0 0 0 -0 0 0 -0 0 0 -0 0 0 -0 0 0 -0 0 0 -0 0 0 -0 0 0 -0 0.0149955 -9.10982e-005 2.64101e-007 -9.69331e-018 1.21329e-020 -4.7394e-023 0 0 -0 0.0189956 -0.00119102 -5.96516e-005 -5.41541e-019 0 2.42657e-020 0 0 -0 0.0122698 -0.00324857 -0.000673756 -2.00796e-019 0 -1.94126e-019 0 0 -0 0 0 -0 0 0 -0 3.39842 1.33031 -0.0637918 -5.65207e-008 0.834868 -0.000436188 -3.39935 -2.16518 -0.0642563 -8.89002e-024 -1.18485e-023 -1.48106e-024 -3.39844 1.35642 0.0640283 -3.18788e-007 0.782166 -0.000588827 3.39931 -2.13858 0.0634662 1.1399e-023 0 -0 
-8.23953 68.6938 -18.4674 0 0 -24.4476 0.684412 -0.27212 -0.724583 1.36535 -0.552853 -1.44587 1.36535 -0.552853 -1.44588 -1.14603 4.58624 5.70335 1.18467 -1.3036 5.21443 -6.6566 -0.555215 0.661704 -14.7237 -3.1279 -0.592148 -7.71623 16.3567 -7.42228 0.385439 -2.40023 -1.27707 -6.61407e-007 8.57649e-008 3.29548e-006 2.84202e-007 -7.80451e-007 -1.73672e-007 -2.50651e-006 2.97813e-007 3.28055e-006 -6.61407e-007 8.57649e-008 3.29548e-006 -0.0145547 -8.85076e-005 5.71041e-008 -2.50658e-006 2.97396e-007 3.28059e-006 -6.61407e-007 8.57649e-008 3.29548e-006 -0.0186293 -0.00117034 6.20886e-005 -2.50658e-006 2.97275e-007 3.28062e-006 -6.61407e-007 8.57649e-008 3.29548e-006 -0.0122469 -0.00324106 0.000673884 -2.50648e-006 2.9746e-007 3.28065e-006 -6.61407e-007 8.57649e-008 3.29548e-006 2.84202e-007 -7.80451e-007 -1.73672e-007 -2.50651e-006 2.97813e-007 3.28055e-006 7.59844 5.81127 1.82654 12.6221 18.4539 2.06172 -2.3058 -3.65796 7.66254 0.679496 -12.6272 -1.68949 -1.56981e-008 1.02926e-007 -2.34244e-008 -4.70942e-008 3.08777e-007 -7.02732e-008 -1.56981e-008 1.02926e-007 -2.34244e-008 -1.56981e-008 1.02926e-007 -2.34244e-008 0.0150532 -9.11441e-005 3.82576e-006 -1.5698e-008 1.02922e-007 -2.34379e-008 -1.56981e-008 1.02926e-007 -2.34244e-008 0.0189864 -0.00119032 -5.70778e-005 -1.56982e-008 1.02922e-007 -2.34413e-008 -1.56981e-008 1.02926e-007 -2.34244e-008 0.0122885 -0.00325251 -0.000679211 -1.56992e-008 1.02923e-007 -2.3435e-008 -1.56981e-008 1.02926e-007 -2.34244e-008 -4.70942e-008 3.08777e-007 -7.02732e-008 -1.56981e-008 1.02926e-007 -2.34244e-008 -0.147417 2.69147 -4.9194 1.90871 -4.61201e-007 -0.271946 -7.4178 -2.3616 3.47477 3.97569e-016 3.97569e-016 -3.18055e-015 1.53223 6.80522 -0.468571 -2.03393 0.214758 0.0462901 -4.56417 -2.4548 20.5761 -9.93923e-017 -7.95139e-016 7.95139e-016 
-16.2483 68.5258 -41.0452 0 0 -48.8952 1.37772 -0.540888 -1.41547 2.74186 -1.11549 -2.81772 2.74186 -1.11549 -2.81772 -3.20946 9.03559 11.5149 2.60553 -2.57478 10.4368 -13.3003 -1.11022 1.32354 -29.5123 -6.25481 -1.18962 -10.5668 31.8398 -16.8319 0.663586 -4.79689 -2.56087 3.18055e-015 0 7.95139e-016 3.18055e-015 -1.59028e-015 7.95139e-016 3.18055e-015 -3.18055e-015 -0 3.18055e-015 0 7.95139e-016 -0.0146159 -8.63159e-005 -2.50938e-006 -3.18055e-015 9.54166e-015 8.74653e-015 3.18055e-015 0 7.95139e-016 -0.0186951 -0.00117522 6.97821e-005 -3.18055e-015 -2.38542e-015 -0 3.18055e-015 0 7.95139e-016 -0.0122171 -0.00323402 0.000675702 -0 0 7.95139e-016 3.18055e-015 0 7.95139e-016 3.18055e-015 -1.59028e-015 7.95139e-016 3.18055e-015 -3.18055e-015 -0 14.8196 11.6047 3.7102 23.6148 36.8298 4.88874 -3.63806 -7.11886 15.4154 0.542986 -25.2202 -3.64511 6.36111e-015 0 -0 4.77083e-015 3.18055e-015 3.18055e-015 3.18055e-015 0 3.18055e-015 6.36111e-015 0 -0 0.0149647 -9.14445e-005 -4.86721e-006 7.95139e-015 6.36111e-015 -0 6.36111e-015 0 -0 0.0190591 -0.00119597 -5.63359e-005 3.18055e-015 0 -6.36111e-015 6.36111e-015 0 -0 0.0122515 -0.00324237 -0.000676009 1.59028e-015 3.18055e-015 6.36111e-015 6.36111e-015 0 -0 4.77083e-015 3.18055e-015 3.18055e-015 3.18055e-015 0 3.18055e-015 -3.52249 3.58121 -9.78622 3.81273 0.0789626 -0.591021 -11.3794 -3.02067 6.98198 9.4955e-007 -1.02722e-008 1.10902e-008 6.73202 11.5718 -0.976461 -4.05943 1.1054 0.0983522 -12.3345 -3.3456 41.0337 1.32312e-007 6.89182e-009 1.55557e-008 
-21.5564 68.4123 -57.0989 0 0 -66.0085 1.85963 -0.725642 -1.84948 3.69535 -1.51054 -3.67493 3.69535 -1.51054 -3.67492 -5.20262 12.0317 15.7026 3.73572 -3.3939 14.0967 -17.9433 -1.49847 1.78703 -39.9468 -8.4416 -1.61266 -8.56686 41.4534 -26.0611 0.793926 -6.47046 -3.46721 -6.36111e-015 -6.36111e-015 4.77083e-015 -3.18055e-015 -6.36111e-015 -1.59028e-015 5.28923e-006 3.15938e-008 2.46591e-006 -6.36111e-015 -6.36111e-015 4.77083e-015 -0.0146244 -8.8684e-005 5.68449e-006 5.2891e-006 3.1278e-008 2.46591e-006 -6.36111e-015 -6.36111e-015 4.77083e-015 -0.0187613 -0.00117508 6.38294e-005 5.28909e-006 3.11772e-008 2.46586e-006 -6.36111e-015 -6.36111e-015 4.77083e-015 -0.0122291 -0.00323819 0.000679872 5.28919e-006 3.12719e-008 2.46577e-006 -6.36111e-015 -6.36111e-015 4.77083e-015 -3.18055e-015 -6.36111e-015 -1.59028e-015 5.28923e-006 3.15938e-008 2.46591e-006 19.6629 15.6408 5.1138 29.6151 49.5682 8.15783 -4.0084 -9.31929 20.9355 -0.17668 -33.9908 -5.37108 -3.53113e-031 6.36111e-015 3.18055e-015 -0 0 1.59028e-015 -2.38542e-015 -1.27222e-014 -2.38542e-015 -3.53113e-031 6.36111e-015 3.18055e-015 0.0149384 -9.38406e-005 -2.15304e-006 -1.31363e-006 2.51921e-007 7.52798e-007 -3.53113e-031 6.36111e-015 3.18055e-015 0.0190999 -0.00119127 -6.00101e-005 -7.95139e-016 1.59028e-014 -0 -3.53113e-031 6.36111e-015 3.18055e-015 0.0122322 -0.00323766 -0.000674869 -1.31386e-006 2.51602e-007 7.52778e-007 -3.53113e-031 6.36111e-015 3.18055e-015 -0 0 1.59028e-015 -2.38542e-015 -1.27222e-014 -2.38542e-015 -5.81013 4.20095 -13.2013 5.14256 0.0788159 -0.829092 -14.0953 -3.38094 9.44292 -2.35658e-006 4.12907e-007 1.2564e-008 10.4889 14.8582 -1.32896 -5.47286 1.93364 0.100505 -17.6968 -3.90833 55.2753 -1.19271e-015 0 -3.18055e-015 
